<?xml version="1.0" encoding="utf-8"?>
<!-- Generator: Adobe Illustrator 23.0.6, SVG Export Plug-In . SVG Version: 6.00 Build 0)  -->
<svg version="1.1" id="Layer_1" xmlns="http://www.w3.org/2000/svg" xmlns:xlink="http://www.w3.org/1999/xlink" x="0px" y="0px"
	 viewBox="0 0 32 32" style="enable-background:new 0 0 32 32;" xml:space="preserve">
<style type="text/css">
	.st0{fill:#222222;}
	.st1{fill:none;}
	.st2{fill:#EEEEEE;}
	.st3{fill:#FFFFFF;}
</style>
<g>
	<rect x="-0.04" y="10" class="st0" width="32.24" height="12.97"/>
	<g>
		<rect x="-0.04" y="10" class="st1" width="32.24" height="12.97"/>
		<g>
			<path class="st1" d="M8.11,14.21c0,0.05,0.03,0.09,0.1,0.1c0.34,0.1,0.65,0.29,0.91,0.58c0.26,0.29,0.4,0.63,0.4,1.02
				c0,0.61-0.39,1.23-1.16,1.87c-0.77,0.64-1.58,0.96-2.44,0.96c-0.24,0-0.43-0.03-0.56-0.09s-0.2-0.14-0.2-0.22
				c0-0.4,0.28-0.61,0.85-0.61c0.08,0,0.2,0,0.37,0.01c0.17,0.01,0.36-0.04,0.58-0.12c0.22-0.09,0.43-0.2,0.64-0.34
				c0.21-0.14,0.39-0.28,0.53-0.43c0.15-0.15,0.27-0.31,0.36-0.47c0.09-0.17,0.14-0.33,0.14-0.51c0-0.28-0.12-0.52-0.36-0.74
				s-0.55-0.32-0.95-0.32c-0.06,0-0.22,0.05-0.46,0.15c-0.24,0.11-0.4,0.16-0.47,0.16c-0.25,0-0.4-0.03-0.47-0.1
				c-0.06-0.06-0.09-0.18-0.09-0.34c0-0.1,0.27-0.26,0.81-0.48c0.45-0.18,0.89-0.47,1.31-0.88c0.42-0.41,0.63-0.75,0.63-1.04
				c0-0.2-0.08-0.35-0.24-0.47c-0.16-0.12-0.38-0.17-0.67-0.17c-0.48,0-0.95,0.06-1.42,0.18c-0.47,0.12-0.73,0.23-0.77,0.33
				c-0.05,0.1-0.18,0.88-0.39,2.33c-0.21,1.45-0.32,2.29-0.32,2.52c0,0.22,0.01,0.43,0.01,0.63c0.01,0.19-0.02,0.36-0.1,0.5
				c-0.08,0.14-0.21,0.21-0.4,0.21c-0.17,0-0.31-0.07-0.4-0.2c-0.09-0.14-0.14-0.31-0.14-0.52c0-0.05,0.01-0.14,0.04-0.25
				c0.17-0.69,0.32-1.57,0.47-2.65s0.22-1.7,0.22-1.86c0-0.13-0.02-0.23-0.06-0.3c-0.04-0.06-0.12-0.1-0.25-0.1
				c-0.05,0-0.1,0-0.15,0.01c-0.05,0-0.1-0.03-0.15-0.09c-0.05-0.06-0.07-0.14-0.07-0.23c0-0.28,0.45-0.56,1.35-0.83
				C6.06,11.14,6.98,11,7.91,11c0.48,0,0.87,0.13,1.17,0.39c0.3,0.26,0.46,0.56,0.46,0.91c0,0.26-0.13,0.56-0.39,0.91
				C8.89,13.55,8.55,13.89,8.11,14.21z"/>
			<path d="M8.61,15.31h0.15v1.06h0.51v0.13H8.61V15.31z"/>
		</g>
		<path class="st2" d="M15.32,14.34c-0.11,0.15-0.31,0.48-0.6,1c-1.21,2.19-1.89,3.28-2.03,3.28c-0.22,0-0.39-0.13-0.53-0.38
			c-0.13-0.26-0.32-0.93-0.55-2.03s-0.43-2.15-0.6-3.15c-0.06-0.28-0.12-0.51-0.18-0.69c-0.08-0.24-0.12-0.42-0.12-0.54
			c0-0.12,0.05-0.24,0.14-0.34c0.09-0.1,0.2-0.15,0.31-0.15c0.14,0,0.26,0.11,0.37,0.32c0.1,0.22,0.22,0.74,0.35,1.58
			c0.27,1.81,0.55,3.18,0.84,4.11c0.8-1.28,1.29-2.1,1.49-2.44c0.19-0.35,0.47-0.91,0.82-1.69c0.09-0.17,0.22-0.26,0.38-0.26
			c0.07,0,0.15,0.07,0.24,0.21c0.09,0.14,0.25,0.52,0.47,1.15c0.55,1.56,0.93,2.49,1.13,2.8c1.12-1.87,1.78-3.81,1.96-5.81
			c0-0.05,0.04-0.11,0.13-0.19c0.09-0.08,0.17-0.12,0.24-0.12c0.26,0,0.38,0.16,0.38,0.49c0,0.34-0.09,0.85-0.26,1.53
			s-0.38,1.31-0.61,1.88s-0.64,1.45-1.2,2.62c-0.09,0.19-0.17,0.36-0.23,0.51c-0.03,0.06-0.09,0.11-0.18,0.15s-0.16,0.06-0.22,0.06
			c-0.14,0-0.28-0.08-0.42-0.23c-0.14-0.15-0.35-0.59-0.64-1.33c-0.29-0.73-0.49-1.28-0.62-1.65C15.5,14.79,15.41,14.56,15.32,14.34
			z"/>
		<path class="st2" d="M27.65,12.48c-0.32,0.35-0.8,0.98-1.47,1.89c-0.66,0.91-1.12,1.49-1.39,1.75c-0.27,0.26-0.49,0.39-0.66,0.39
			c-0.13,0-0.26-0.1-0.38-0.3c-0.13-0.2-0.29-0.6-0.48-1.2c-0.41-1.22-0.67-1.93-0.77-2.11c-0.04,0.11-0.08,0.29-0.13,0.53
			c-0.1,0.52-0.24,1.15-0.41,1.9c-0.33,1.43-0.52,2.38-0.56,2.85c-0.01,0.06-0.06,0.12-0.16,0.19c-0.1,0.07-0.18,0.1-0.24,0.1
			c-0.11,0-0.22-0.06-0.32-0.17c-0.1-0.12-0.15-0.23-0.15-0.34c0-0.28,0.09-0.77,0.28-1.48l0.42-1.58c0.26-1,0.41-1.73,0.47-2.2
			s0.09-0.84,0.09-1.11c0-0.28,0.22-0.42,0.66-0.42c0.09,0,0.19,0.08,0.29,0.24c0.1,0.16,0.17,0.3,0.2,0.43
			c0.04,0.12,0.09,0.26,0.15,0.41l0.64,1.81c0.25,0.74,0.41,1.15,0.47,1.25c0.06,0.09,0.11,0.14,0.15,0.14
			c0.16-0.04,0.74-0.74,1.73-2.11c1.1-1.52,1.73-2.29,1.89-2.29c0.13,0,0.27,0.05,0.42,0.15c0.15,0.1,0.23,0.19,0.23,0.26
			c0,0.03-0.09,0.74-0.28,2.11c-0.07,0.51-0.13,1.12-0.19,1.84c-0.06,0.71-0.09,1.12-0.09,1.21c0,0.16,0.03,0.35,0.09,0.55
			c0.05,0.18,0.08,0.32,0.08,0.43c0,0.09-0.02,0.21-0.05,0.38c-0.03,0.16-0.1,0.26-0.21,0.29c-0.11,0.03-0.19,0.04-0.26,0.04
			c-0.34,0-0.5-0.28-0.5-0.84c0-0.51,0.11-1.77,0.33-3.77c0.02-0.16,0.02-0.26,0.02-0.3c0-0.03,0.02-0.13,0.06-0.32
			c0.03-0.16,0.04-0.3,0.04-0.4C27.67,12.58,27.66,12.51,27.65,12.48z"/>
	</g>
	<g>
		<rect x="-0.04" y="20.12" class="st1" width="32.24" height="2.85"/>
		<path class="st3" d="M10.02,21.03c0-0.23,0-0.49,0.01-0.65h-0.02c-0.06,0.28-0.2,0.74-0.33,1.17H9.44l-0.29-1.3H9.1
			c0.01,0.16,0.02,0.44,0.02,0.68v0.49H8.86v-1.3h0.45c0.11,0.37,0.23,0.83,0.27,1.04h0c0.03-0.18,0.19-0.68,0.3-1.04h0.39v1.3
			h-0.26L10.02,21.03L10.02,21.03z"/>
		<path class="st3" d="M12.99,20.13v0.8c-0.01,0.26,0.12,0.33,0.26,0.33c0.17,0,0.27-0.09,0.25-0.33v-0.81h0.39v0.79
			c-0.08,0.46-0.35,0.58-0.64,0.58c-0.3,0-0.56-0.12-0.52-0.57v-0.67h0.26V20.13z"/>
		<path class="st3" d="M16.34,21.07c0.09,0.13,0.18,0.19,0.34,0.19c0.15,0,0.22-0.06,0.22-0.16c0-0.11-0.06-0.16-0.29-0.21
			c-0.36-0.09-0.45-0.22-0.45-0.4c0-0.23,0.17-0.39,0.49-0.39c0.35,0,0.5,0.19,0.51,0.4h-0.29c-0.01-0.1-0.06-0.19-0.23-0.19
			c-0.12,0-0.19,0.05-0.19,0.14c0,0.09,0.06,0.13,0.27,0.18c0.39,0.09,0.47,0.24,0.47,0.43c0,0.25-0.18,0.41-0.54,0.41
			c-0.34,0-0.52-0.17-0.55-0.46h0.23V21.07z"/>
		<path class="st3" d="M19.82,20.12v1.3h-0.26v-1.3H19.82z"/>
		<path class="st3" d="M23.3,21.03c-0.05,0.25-0.24,0.44-0.58,0.44c-0.43,0-0.63-0.3-0.63-0.69c0-0.37,0.21-0.71,0.64-0.71
			c0.36,0,0.53,0.21,0.57,0.44h-0.29c-0.03-0.1-0.1-0.21-0.28-0.21c-0.24,0-0.33,0.22-0.33,0.46c0,0.23,0.08,0.47,0.34,0.47
			c0.19,0,0.25-0.13,0.27-0.21L23.3,21.03L23.3,21.03z"/>
	</g>
</g>
<g>
	<path class="st3" d="M7.57,13.88c0,0.05,0.03,0.09,0.09,0.1c0.33,0.1,0.63,0.3,0.88,0.6s0.38,0.65,0.38,1.06
		c0,0.63-0.37,1.27-1.11,1.94c-0.74,0.66-1.53,1-2.35,1c-0.23,0-0.41-0.03-0.54-0.1c-0.13-0.07-0.2-0.14-0.2-0.23
		c0-0.42,0.27-0.63,0.82-0.63c0.08,0,0.2,0,0.36,0.01c0.16,0.01,0.35-0.04,0.56-0.13c0.21-0.09,0.42-0.21,0.61-0.35
		s0.37-0.29,0.51-0.45c0.14-0.15,0.26-0.32,0.35-0.49c0.09-0.17,0.13-0.35,0.13-0.52c0-0.29-0.11-0.54-0.34-0.76
		S7.19,14.6,6.81,14.6c-0.06,0-0.21,0.05-0.44,0.16c-0.23,0.11-0.38,0.16-0.45,0.16c-0.24,0-0.39-0.03-0.45-0.1
		c-0.06-0.07-0.09-0.18-0.09-0.35c0-0.1,0.26-0.27,0.78-0.5c0.43-0.19,0.85-0.49,1.26-0.91c0.41-0.42,0.61-0.78,0.61-1.07
		c0-0.2-0.08-0.36-0.23-0.48c-0.15-0.12-0.37-0.18-0.65-0.18c-0.46,0-0.91,0.06-1.36,0.18c-0.45,0.12-0.7,0.23-0.74,0.34
		C5,11.96,4.88,12.76,4.67,14.26c-0.21,1.5-0.31,2.37-0.31,2.61c0,0.23,0,0.45,0.01,0.65c0.01,0.2-0.02,0.37-0.1,0.52
		s-0.2,0.22-0.38,0.22c-0.17,0-0.29-0.07-0.38-0.21c-0.09-0.14-0.14-0.32-0.14-0.54c0-0.06,0.01-0.14,0.04-0.26
		c0.16-0.71,0.31-1.63,0.45-2.74C4,13.4,4.08,12.76,4.08,12.58c0-0.14-0.02-0.24-0.05-0.31c-0.04-0.07-0.12-0.1-0.24-0.1
		c-0.05,0-0.1,0-0.15,0c-0.05,0-0.1-0.03-0.14-0.09c-0.05-0.07-0.07-0.15-0.07-0.24c0-0.29,0.43-0.58,1.3-0.86
		c0.87-0.28,1.75-0.42,2.65-0.42c0.46,0,0.84,0.13,1.13,0.4s0.44,0.58,0.44,0.94c0,0.27-0.13,0.58-0.38,0.94
		C8.32,13.2,7.99,13.55,7.57,13.88z"/>
</g>
<rect class="st0" width="32" height="10"/>
<rect y="23" class="st0" width="32" height="9"/>
<g>
</g>
<g>
</g>
<g>
</g>
<g>
</g>
<g>
</g>
<g>
</g>
<g>
</g>
<g>
</g>
<g>
</g>
<g>
</g>
<g>
</g>
<g>
</g>
<g>
</g>
<g>
</g>
<g>
</g>
</svg>
