<?xml version="1.0" encoding="utf-8"?>
<!-- Generator: Adobe Illustrator 23.0.6, SVG Export Plug-In . SVG Version: 6.00 Build 0)  -->
<svg version="1.1" id="Layer_1" xmlns="http://www.w3.org/2000/svg" xmlns:xlink="http://www.w3.org/1999/xlink" x="0px" y="0px"
	 viewBox="0 0 250 100" style="enable-background:new 0 0 250 100;" xml:space="preserve">
<style type="text/css">
	.st0{fill:#222222;}
	.st1{fill:none;}
	.st2{fill:#EEEEEE;}
	.st3{fill:#FFFFFF;}
</style>
<rect class="st0" width="250" height="100"/>
<g>
	<rect y="0" class="st1" width="250" height="100"/>
	<path class="st2" d="M63.14,32.8c0,0.4,0.25,0.66,0.74,0.78c2.67,0.77,5.03,2.26,7.09,4.47c2.05,2.21,3.08,4.84,3.08,7.89
		c0,4.68-2.99,9.49-8.98,14.44c-5.99,4.95-12.28,7.42-18.89,7.42c-1.86,0-3.31-0.24-4.36-0.72c-1.05-0.48-1.58-1.05-1.58-1.69
		c0-3.12,2.2-4.68,6.61-4.68c0.62,0,1.58,0.03,2.88,0.07c1.3,0.05,2.8-0.27,4.49-0.95c1.69-0.68,3.35-1.56,4.95-2.63
		c1.61-1.08,2.99-2.19,4.14-3.34s2.08-2.37,2.78-3.66c0.71-1.29,1.06-2.58,1.06-3.9c0-2.13-0.92-4.02-2.76-5.68
		c-1.84-1.66-4.3-2.49-7.37-2.49c-0.5,0-1.67,0.4-3.53,1.19c-1.86,0.82-3.07,1.22-3.64,1.22c-1.93,0-3.14-0.25-3.62-0.74
		c-0.48-0.49-0.72-1.37-0.72-2.63c0-0.77,2.09-2,6.27-3.71c3.49-1.39,6.87-3.65,10.15-6.79c3.28-3.14,4.92-5.8,4.92-7.98
		c0-1.51-0.62-2.71-1.86-3.6c-1.24-0.89-2.97-1.34-5.2-1.34c-3.69,0-7.35,0.45-10.98,1.35c-3.64,0.9-5.63,1.75-5.99,2.54
		c-0.36,0.79-1.37,6.79-3.02,17.98c-1.66,11.2-2.49,17.67-2.49,19.43c0,1.73,0.04,3.35,0.11,4.84c0.07,1.5-0.19,2.78-0.8,3.86
		c-0.61,1.08-1.64,1.61-3.1,1.61c-1.34,0-2.37-0.53-3.1-1.58c-0.73-1.05-1.09-2.38-1.09-3.99c0-0.42,0.11-1.06,0.33-1.93
		c1.29-5.32,2.5-12.12,3.64-20.41c1.14-8.29,1.71-13.07,1.71-14.36c0-1.04-0.14-1.81-0.43-2.3c-0.28-0.49-0.93-0.74-1.95-0.74
		c-0.4,0-0.79,0.01-1.17,0.04c-0.38,0.02-0.77-0.21-1.15-0.71c-0.38-0.49-0.58-1.09-0.58-1.78c0-2.18,3.5-4.32,10.5-6.42
		c7-2.1,14.11-3.15,21.34-3.15c3.71,0,6.75,1,9.11,2.99c2.36,1.99,3.54,4.32,3.54,7c0,1.98-1.01,4.31-3.02,7
		C69.19,27.71,66.5,30.31,63.14,32.8z"/>
	<path class="st2" d="M119.03,33.81c-0.84,1.14-2.39,3.7-4.64,7.68C105.01,58.36,99.77,66.8,98.65,66.8c-1.68,0-3.04-0.98-4.08-2.95
		s-2.47-7.18-4.29-15.64s-3.36-16.55-4.62-24.27c-0.47-2.18-0.93-3.96-1.37-5.34c-0.62-1.86-0.93-3.24-0.93-4.16
		c0-0.96,0.36-1.84,1.09-2.62c0.73-0.78,1.54-1.17,2.43-1.17c1.09,0,2.03,0.83,2.84,2.5c0.8,1.67,1.7,5.72,2.69,12.15
		c2.13,13.98,4.3,24.54,6.53,31.69c6.18-9.87,10.03-16.15,11.54-18.83c1.51-2.68,3.64-7.02,6.38-13.01
		c0.72-1.31,1.71-1.97,2.97-1.97c0.54,0,1.16,0.54,1.86,1.61c0.69,1.08,1.9,4.04,3.64,8.89c4.3,12,7.24,19.2,8.79,21.6
		c8.71-14.4,13.77-29.33,15.18-44.79c0-0.35,0.33-0.82,0.98-1.43c0.66-0.61,1.28-0.91,1.87-0.91c1.98,0,2.97,1.26,2.97,3.79
		c0,2.62-0.66,6.55-1.99,11.78s-2.91,10.06-4.75,14.47s-4.94,11.14-9.3,20.17c-0.72,1.46-1.32,2.76-1.82,3.9
		c-0.25,0.47-0.72,0.87-1.43,1.19s-1.27,0.48-1.69,0.48c-1.06,0-2.14-0.58-3.23-1.74c-1.09-1.16-2.75-4.57-4.97-10.22
		c-2.23-5.65-3.83-9.9-4.82-12.75C120.45,37.27,119.74,35.46,119.03,33.81z"/>
	<path class="st2" d="M214.62,19.41c-2.45,2.72-6.23,7.58-11.36,14.58c-5.12,6.98-8.72,11.47-10.8,13.47s-3.79,3.01-5.12,3.01
		c-1.01,0-2-0.76-2.97-2.28s-2.21-4.59-3.75-9.22c-3.17-9.43-5.16-14.86-5.97-16.29c-0.3,0.84-0.63,2.21-1,4.12
		c-0.79,4.01-1.84,8.89-3.15,14.66c-2.55,11.06-4,18.38-4.34,21.97c-0.05,0.45-0.45,0.93-1.21,1.45c-0.75,0.52-1.37,0.78-1.84,0.78
		c-0.89,0-1.71-0.45-2.47-1.34s-1.13-1.76-1.13-2.6c0-2.18,0.72-5.97,2.15-11.39l3.23-12.17c1.98-7.67,3.2-13.31,3.67-16.92
		c0.47-3.61,0.71-6.46,0.71-8.54c0-2.15,1.69-3.23,5.08-3.23c0.72,0,1.47,0.63,2.26,1.87c0.79,1.25,1.31,2.34,1.56,3.28
		c0.32,0.94,0.71,1.99,1.15,3.15l4.97,13.92c1.95,5.69,3.16,8.9,3.62,9.63c0.46,0.73,0.83,1.09,1.13,1.09
		c1.26-0.27,5.73-5.7,13.4-16.29c8.54-11.75,13.41-17.63,14.62-17.63c0.99,0,2.08,0.39,3.28,1.17c1.2,0.78,1.8,1.45,1.8,2.02
		c0,0.25-0.72,5.68-2.15,16.29c-0.52,3.93-1,8.65-1.45,14.16c-0.45,5.5-0.67,8.6-0.67,9.3c0,1.26,0.22,2.67,0.67,4.23
		c0.4,1.39,0.59,2.5,0.59,3.34c0,0.67-0.12,1.64-0.37,2.91c-0.25,1.27-0.79,2.02-1.61,2.25c-0.83,0.22-1.49,0.33-1.99,0.33
		c-2.6,0-3.9-2.16-3.9-6.49c0-3.96,0.85-13.64,2.56-29.06c0.12-1.24,0.19-2,0.19-2.3c0-0.2,0.15-1.03,0.45-2.49
		c0.22-1.24,0.33-2.28,0.33-3.12C214.8,20.22,214.74,19.68,214.62,19.41z"/>
</g>
<g>
	<rect y="77.77" class="st1" width="250" height="22.23"/>
	<path class="st3" d="M77.85,84.84c0-1.76,0.03-3.74,0.07-4.91h-0.07c-0.49,2.11-1.52,5.55-2.51,8.79h-1.9
		c-0.75-2.83-1.82-6.75-2.28-8.82h-0.07c0.09,1.21,0.13,3.34,0.13,5.11v3.7h-2.04V78.37h3.33c0.81,2.7,1.71,6.09,2.02,7.63h0.02
		c0.25-1.36,1.39-4.98,2.25-7.63H80v10.34h-2.16V84.84z"/>
	<path class="st3" d="M100.83,78.37v6.16c0,1.98,1.02,2.57,2.14,2.57c1.28,0,2.08-0.7,2.08-2.57v-6.16h2.24v6.05
		c0,3.54-2.07,4.44-4.35,4.44c-2.33,0-4.35-0.94-4.35-4.39v-6.09H100.83z"/>
	<path class="st3" d="M127.38,85.68c0.24,1.04,0.98,1.49,2.18,1.49c1.19,0,1.71-0.47,1.71-1.23c0-0.84-0.5-1.21-2.27-1.62
		c-2.81-0.66-3.51-1.68-3.51-3.08c0-1.8,1.35-3.03,3.8-3.03c2.75,0,3.84,1.48,3.99,2.99h-2.25c-0.11-0.64-0.46-1.33-1.79-1.33
		c-0.91,0-1.46,0.38-1.46,1.11c0,0.72,0.44,1.01,2.11,1.4c3.01,0.71,3.67,1.83,3.67,3.29c0,1.89-1.43,3.18-4.16,3.18
		c-2.63,0-4.01-1.29-4.26-3.18H127.38z"/>
	<path class="st3" d="M153.89,78.37v10.34h-2.24V78.37H153.89z"/>
	<path class="st3" d="M181.38,85.53c-0.42,1.93-1.87,3.33-4.46,3.33c-3.28,0-4.83-2.32-4.83-5.26c0-2.83,1.6-5.38,4.94-5.38
		c2.75,0,4.09,1.62,4.34,3.34h-2.24c-0.22-0.8-0.77-1.59-2.18-1.59c-1.84,0-2.56,1.66-2.56,3.54c0,1.75,0.62,3.59,2.62,3.59
		c1.46,0,1.92-0.98,2.11-1.58H181.38z"/>
</g>
<g>
</g>
<g>
</g>
<g>
</g>
<g>
</g>
<g>
</g>
<g>
</g>
<g>
</g>
<g>
</g>
<g>
</g>
<g>
</g>
<g>
</g>
<g>
</g>
<g>
</g>
<g>
</g>
<g>
</g>
</svg>
